# xmcd CD database file
#
# Track frame offsets:
#	150
#	14261
#	27628
#	38603
#	47541
#	68955
#	82478
#	96218
#	108840
#	123844
#	140215
#	152630
#
# Disc length: 2188 seconds
#
# Revision: 0
# Processed by: cddbd v1.5.2PL0 Copyright (c) Steve Scherf et al.
# Submitted via: CDex 1.77
#
DISCID=a0088a0c
DTITLE=The Little Roy and Lizzy Show - Pop! goes the Banjo
DYEAR=2013
DGENRE=Country
TTITLE0=Pop! goes the Banjo
TTITLE1=Old Black Joe
TTITLE2=Going To See Earl
TTITLE3=Choppin' Wood
TTITLE4=Clayton's Grand March
TTITLE5=Orange Blossom Special
TTITLE6=Ding Bat and Doo Da
TTITLE7=Elijah Clark Stomp
TTITLE8=Cain Lightning Blues
TTITLE9=The Five-String Waltz
TTITLE10=Lincoln County Gap
TTITLE11=Rawhide
EXTD=YEAR: 2013
EXTT0=
EXTT1=
EXTT2=
EXTT3=
EXTT4=
EXTT5=
EXTT6=
EXTT7=
EXTT8=
EXTT9=
EXTT10=
EXTT11=
PLAYORDER=
